<svg xmlns="http://www.w3.org/2000/svg" viewBox="0 0 32.41 56.72"><defs><style>.cls-1{fill:#231f20;}.cls-2{fill:#58595b;}.cls-3{fill:#6d6e71;}.cls-4{fill:#414042;}</style></defs><title>cr-logo-grayscale</title><g id="Layer_2" data-name="Layer 2"><g id="Layer_1-2" data-name="Layer 1"><polygon class="cls-1" points="16.21 20.26 8.1 16.21 8.1 40.51 16.21 44.57 16.21 20.26"/><polygon class="cls-2" points="32.41 12.15 24.31 16.21 24.31 32.41 32.41 28.36 32.41 12.15"/><polygon class="cls-2" points="32.41 36.46 24.31 40.51 24.31 56.72 32.41 52.67 32.41 36.46"/><polygon class="cls-1" points="16.21 28.36 8.1 32.41 24.31 40.51 32.41 36.46 16.21 28.36"/><polygon class="cls-3" points="8.1 0 0 4.05 24.31 16.21 32.41 12.15 8.1 0"/><polygon class="cls-4" points="16.21 36.46 8.1 40.51 16.21 44.57 16.21 36.46"/><polygon class="cls-4" points="24.31 32.41 16.21 36.46 24.31 40.51 32.41 36.46 24.31 32.41"/></g></g></svg>