<svg xmlns="http://www.w3.org/2000/svg" viewBox="0 0 396.53 690.28"><defs><style>.cls-1{fill:none;stroke:#e6e7e8;stroke-miterlimit:10;stroke-width:1.44px;}</style></defs><title>cr-logo-outline</title><g id="Layer_2" data-name="Layer 2"><g id="Layer_1-2" data-name="Layer 1"><polygon class="cls-1" points="296.6 689.12 394.93 639.96 394.93 443.3 296.6 492.46 296.6 689.12"/><polygon class="cls-1" points="296.6 492.46 394.93 443.3 296.6 394.13 198.27 443.3 296.6 492.46"/><polygon class="cls-1" points="198.27 541.63 198.27 443.3 99.93 492.46 198.27 541.63"/><polygon class="cls-1" points="99.93 197.47 99.93 394.13 99.93 492.46 198.27 443.3 198.27 344.96 198.27 246.63 99.93 197.47"/><polygon class="cls-1" points="394.93 148.3 296.6 197.47 296.6 394.13 394.93 344.96 394.93 148.3"/><polygon class="cls-1" points="198.27 443.3 296.6 394.13 198.27 344.96 198.27 443.3"/><polygon class="cls-1" points="99.93 0.8 1.6 49.97 296.6 197.47 394.93 148.3 99.93 0.8"/></g></g></svg>